# Tiled2Unity generated file. Do not modify by hand.
# Wavefront file for 'basicmap2_mesh_0007.obj'

# Vertices (Count = 28)
v -1568 -2176 0
v -3668 -2176 0
v -3668 -676 0
v -1568 -676 0
v -32 -2400 0
v -2132 -2400 0
v -2132 -900 0
v -32 -900 0
v -992 -2624 0
v -3092 -2624 0
v -3092 -1124 0
v -992 -1124 0
v -288 -2720 0
v -2388 -2720 0
v -2388 -1220 0
v -288 -1220 0
v -576 -2752 0
v -2676 -2752 0
v -2676 -1252 0
v -576 -1252 0
v -1792 -3008 0
v -3892 -3008 0
v -3892 -1508 0
v -1792 -1508 0
v -1376 -3168 0
v -3476 -3168 0
v -3476 -1668 0
v -1376 -1668 0

# Texture cooridinates (Count = 4)
vt 0 0
vt 1 0
vt 1 1
vt 0 1

# Normal
vn 0 0 -1

# Mesh description
g basicmap2_mesh_0007

# Faces
f 1/1/1 2/2/1 3/3/1 4/4/1
f 5/1/1 6/2/1 7/3/1 8/4/1
f 9/1/1 10/2/1 11/3/1 12/4/1
f 13/1/1 14/2/1 15/3/1 16/4/1
f 17/1/1 18/2/1 19/3/1 20/4/1
f 21/1/1 22/2/1 23/3/1 24/4/1
f 25/1/1 26/2/1 27/3/1 28/4/1

