# Tiled2Unity generated file. Do not modify by hand.
# Wavefront file for 'basicmap2_mesh_0005.obj'

# Vertices (Count = 44)
v -928 -352 0
v -1770 -352 0
v -1770 526 0
v -928 526 0
v -2656 -640 0
v -3498 -640 0
v -3498 238 0
v -2656 238 0
v -160 -800 0
v -1002 -800 0
v -1002 78 0
v -160 78 0
v -1312 -1216 0
v -2154 -1216 0
v -2154 -338 0
v -1312 -338 0
v -288 -2336 0
v -1130 -2336 0
v -1130 -1458 0
v -288 -1458 0
v -800 -2624 0
v -1642 -2624 0
v -1642 -1746 0
v -800 -1746 0
v -1504 -2752 0
v -2346 -2752 0
v -2346 -1874 0
v -1504 -1874 0
v -224 -2784 0
v -1066 -2784 0
v -1066 -1906 0
v -224 -1906 0
v -1216 -2976 0
v -2058 -2976 0
v -2058 -2098 0
v -1216 -2098 0
v -1248 -2976 0
v -2090 -2976 0
v -2090 -2098 0
v -1248 -2098 0
v -768 -3072 0
v -1610 -3072 0
v -1610 -2194 0
v -768 -2194 0

# Texture cooridinates (Count = 4)
vt 0 0
vt 1 0
vt 1 1
vt 0 1

# Normal
vn 0 0 -1

# Mesh description
g basicmap2_mesh_0005

# Faces
f 1/1/1 2/2/1 3/3/1 4/4/1
f 5/1/1 6/2/1 7/3/1 8/4/1
f 9/1/1 10/2/1 11/3/1 12/4/1
f 13/1/1 14/2/1 15/3/1 16/4/1
f 17/1/1 18/2/1 19/3/1 20/4/1
f 21/1/1 22/2/1 23/3/1 24/4/1
f 25/1/1 26/2/1 27/3/1 28/4/1
f 29/1/1 30/2/1 31/3/1 32/4/1
f 33/1/1 34/2/1 35/3/1 36/4/1
f 37/1/1 38/2/1 39/3/1 40/4/1
f 41/1/1 42/2/1 43/3/1 44/4/1

